<svg xmlns="http://www.w3.org/2000/svg" width="1080" height="1080" viewBox="0 0 1080 1080" role="img" aria-label="매일 성경 묵상 카드 (목업)">
  <defs>
    <linearGradient id="m" x1="0" y1="0" x2="0.4" y2="1">
      <stop offset="0" stop-color="#2b382d"/><stop offset="1" stop-color="#161d17"/>
    </linearGradient>
    <radialGradient id="mg" cx="0.5" cy="0.36" r="0.7">
      <stop offset="0" stop-color="#4c5a44" stop-opacity="0.5"/><stop offset="1" stop-color="#161d17" stop-opacity="0"/>
    </radialGradient>
  </defs>
  <rect width="1080" height="1080" fill="url(#m)"/>
  <rect width="1080" height="1080" fill="url(#mg)"/>
  <!-- 펼친 책 모티프 -->
  <g stroke="#88bd8b" stroke-width="4" fill="none" opacity="0.85">
    <path d="M540 360 C 470 320, 400 320, 340 348 L340 660 C 400 632, 470 632, 540 672 Z"/>
    <path d="M540 360 C 610 320, 680 320, 740 348 L740 660 C 680 632, 610 632, 540 672 Z"/>
    <line x1="540" y1="360" x2="540" y2="672"/>
    <path d="M390 420 h100 M390 470 h100 M390 520 h80" stroke-width="3" opacity="0.6"/>
    <path d="M590 420 h100 M590 470 h100 M590 520 h80" stroke-width="3" opacity="0.6"/>
  </g>
  <text x="540" y="800" text-anchor="middle" font-family="'Malgun Gothic','Apple SD Gothic Neo',sans-serif" font-weight="800" font-size="66" fill="#f3e9d6">매일 성경 묵상</text>
  <text x="540" y="866" text-anchor="middle" font-family="serif" font-size="32" letter-spacing="4" fill="#b7a284">페이스북에 매일 연재</text>
  <text x="540" y="1000" text-anchor="middle" font-family="sans-serif" font-size="26" letter-spacing="6" fill="#88bd8b">DAILY DEVOTION</text>
</svg>
